# xmcd
#
# Track frame offsets:
#	150
#	13850
#	27877
#	39565
#	52580
#	65022
#	79785
#	90580
#	104430
#	118042
#	131927
#
# Disc length: 2072 seconds
#
# Revision: 2
# Processed by: cddbd v1.5.2PL0 Copyright (c) Steve Scherf et al.
# Submitted via: audiograbber 1.83.01
#
DISCID=8d08160b
DTITLE=Vreni and Rudi - Milch und Brot
DYEAR=1993
DGENRE=Volksmusik
TTITLE0=Milch und Brot
TTITLE1=Es lächle am Morge
TTITLE2=Bim erschte Sunnenstrahl (de Güggel)
TTITLE3=Die wahre Liab
TTITLE4=Herz isch Trumpf
TTITLE5=Summernacht am Zürisee
TTITLE6=Hallo Freunde singt mit uns
TTITLE7=Zwei rebraune Augen
TTITLE8=Was sich neckt...
TTITLE9=In richtig Sunne
TTITLE10=Dreiländer-Medley (In der Schweiz - Die Fischerin vom Bodensee - Wo de
TTITLE10=r Wildbach rauscht - Liechtensteiner Polka)
EXTD=MARO\n
EXTT0=
EXTT1=
EXTT2=
EXTT3=
EXTT4=
EXTT5=
EXTT6=
EXTT7=
EXTT8=
EXTT9=
EXTT10=
PLAYORDER=
